<svg width="295" height="267" viewBox="0 0 295 267" fill="none" xmlns="http://www.w3.org/2000/svg">
<g filter="url(#filter0_d_147_2653)">
<path d="M171.352 5.20445e-05L171.352 6.81785L183.161 6.81785L183.161 5.16381e-05L171.352 5.20445e-05ZM288.76 67.7857L289.783 68.3761L290.806 67.7857L289.783 67.1952L288.76 67.7857ZM56.0443 202.144L55.0216 202.735L56.0443 203.325L57.067 202.735L56.0443 202.144ZM3.63865 171.888L3.63864 178.706L15.4474 178.706L15.4474 171.888L3.63865 171.888ZM176.234 3.99939L287.738 68.3761L289.783 67.1952L178.279 2.81851L176.234 3.99939ZM287.738 67.1952L55.0216 201.554L57.067 202.735L289.783 68.3761L287.738 67.1952ZM57.0669 201.554L10.5657 174.706L8.52036 175.887L55.0216 202.735L57.0669 201.554Z" fill="#0066FF"/>
</g>
<defs>
<filter id="filter0_d_147_2653" x="6.80398e-05" y="0" width="294.444" height="267" filterUnits="userSpaceOnUse" color-interpolation-filters="sRGB">
<feFlood flood-opacity="0" result="BackgroundImageFix"/>
<feColorMatrix in="SourceAlpha" type="matrix" values="0 0 0 0 0 0 0 0 0 0 0 0 0 0 0 0 0 0 127 0" result="hardAlpha"/>
<feOffset dy="59.9564"/>
<feGaussianBlur stdDeviation="1.81686"/>
<feComposite in2="hardAlpha" operator="out"/>
<feColorMatrix type="matrix" values="0 0 0 0 0.831373 0 0 0 0 0.894118 0 0 0 0 0.996078 0 0 0 1 0"/>
<feBlend mode="normal" in2="BackgroundImageFix" result="effect1_dropShadow_147_2653"/>
<feBlend mode="normal" in="SourceGraphic" in2="effect1_dropShadow_147_2653" result="shape"/>
</filter>
</defs>
</svg>
