<svg width="108" height="97" viewBox="0 0 108 97" fill="none" xmlns="http://www.w3.org/2000/svg">
<path fill-rule="evenodd" clip-rule="evenodd" d="M12.0048 12.1995C19.4201 7.9199 29.6633 8.53904 40.9776 15.0713L40.978 15.0712L50.6117 20.6332L50.6112 20.6335C73.2425 33.6997 91.5888 65.4765 91.5888 91.6089L108 82.1342C108 56.0018 89.6534 24.2251 67.0221 11.1589L67.0226 11.1586L57.3887 5.59643L57.3883 5.59659C46.0713 -0.937321 35.8257 -1.55515 28.41 2.72793L12.0048 12.1995ZM0 38.7298C0 25.6652 4.58545 16.4847 11.9993 12.2027L7.28492 51.3476C3.26157 49.0248 0 43.3756 0 38.7298ZM7.28492 51.3476L23.6956 41.8729L23.6957 41.8729L7.28492 51.3476ZM84.3043 95.8149C86.3162 96.9765 88.1376 97.0863 89.456 96.3249L89.4561 96.3248L89.4624 96.3212L105.866 86.8507L105.867 86.8501C107.185 86.0888 108 84.4568 108 82.1342L100.715 86.3402L91.5893 91.6089L84.3043 95.8149Z" fill="url(#paint0_linear_147_2878)"/>
<defs>
<linearGradient id="paint0_linear_147_2878" x1="45.2927" y1="-0.0778013" x2="60.9079" y2="99.2572" gradientUnits="userSpaceOnUse">
<stop stop-color="#66A3FF"/>
<stop offset="1" stop-color="#0066FF"/>
</linearGradient>
</defs>
</svg>
