<svg width="92" height="152" viewBox="0 0 92 152" fill="none" xmlns="http://www.w3.org/2000/svg">
<path fill-rule="evenodd" clip-rule="evenodd" d="M45.7642 62.3367C59.8394 70.463 71.2496 63.8753 71.2496 47.6227C71.2496 31.3701 59.8394 11.607 45.7642 3.48071C31.689 -4.6456 20.2788 1.94208 20.2788 18.1947C20.2788 34.4473 31.689 54.2104 45.7642 62.3367ZM40.9503 70.3161C18.3341 57.2586 -2.00004e-06 67.8438 -2.57537e-06 93.9588C-2.67765e-06 98.6015 3.25939 104.247 7.28006 106.568L84.2481 151.006C88.2687 153.327 91.5281 151.445 91.5281 146.803C91.5281 120.688 73.194 88.932 50.5778 75.8745L40.9503 70.3161Z" fill="#E1EDFF"/>
</svg>
