<svg width="68" height="76" viewBox="0 0 68 76" fill="none" xmlns="http://www.w3.org/2000/svg">
<path fill-rule="evenodd" clip-rule="evenodd" d="M17.7973 9.93073C20.294 10.4394 22.9578 11.4733 25.7235 13.0701L42.2765 3.51323C35.1723 -0.588397 28.7407 -0.976237 24.0855 1.71244L24.0855 1.71249L7.53599 11.2673L7.5325 11.2694C2.87849 13.9574 0 19.7204 0 27.9216L16.553 18.3647C16.553 15.1711 16.9895 12.3473 17.7973 9.93073ZM25.7235 72.476C11.5168 64.2738 0 44.3261 0 27.9217L16.553 18.3648C16.553 34.7692 28.0698 54.7169 42.2765 62.9191L42.2766 62.919C45.0423 64.5158 47.7061 65.5498 50.2028 66.0584C51.0106 63.6419 51.4471 60.818 51.4471 57.6244L51.447 57.6245C51.447 41.22 39.9302 21.2724 25.7236 13.0702L42.2766 3.51327C56.4833 11.7155 68 31.6632 68 48.0676L68.0001 48.0675C68.0001 56.2688 65.1216 62.0318 60.4676 64.7198L60.4641 64.7218L43.9146 74.2767L43.9145 74.2767C39.2594 76.9654 32.8278 76.5775 25.7236 72.4759L25.7235 72.476Z" fill="url(#paint0_linear_147_2887)"/>
<defs>
<linearGradient id="paint0_linear_147_2887" x1="16.3783" y1="-11.6164" x2="41.9968" y2="77.8787" gradientUnits="userSpaceOnUse">
<stop stop-color="#00FDF4"/>
<stop offset="1" stop-color="#408CFF"/>
</linearGradient>
</defs>
</svg>
