<svg width="199" height="131" viewBox="0 0 199 131" fill="none" xmlns="http://www.w3.org/2000/svg">
<path fill-rule="evenodd" clip-rule="evenodd" d="M129.19 9.3814L142.951 1.43613L142.954 1.4344C146.856 -0.817686 152.244 -0.49351 158.2 2.94526L144.396 10.9153C142.055 9.5639 139.802 8.69352 137.693 8.27148C137.155 9.85694 136.809 11.6528 136.68 13.6437L122.875 21.6135L122.875 21.6136C122.841 21.6051 122.806 21.5967 122.772 21.5884C122.397 23.0527 122.198 24.6939 122.198 26.5005C122.198 38.3004 130.689 52.8989 141.398 59.7566L177.401 80.543C179.643 81.8375 181.806 82.669 183.84 83.0693C184.716 80.7119 185.196 77.8892 185.196 74.6538L199 66.6838C199 74.2114 196.406 79.5044 192.249 81.9035L178.447 89.8719L178.512 89.8344L178.444 89.8735C174.572 92.108 169.345 91.8321 163.597 88.513L127.594 67.7266C116.885 60.869 108.393 46.2704 108.393 34.4705C108.393 28.594 110.499 24.4675 113.935 22.4843L113.968 22.4653L123.695 16.8495C124.728 13.3894 126.629 10.8593 129.15 9.40444L129.19 9.3814ZM41.5251 65.0308C38.8822 52.8734 33.3838 41.1443 27.0023 35.3355C22.5352 31.2694 18.4942 30.8861 15.5675 33.549C12.8943 35.9814 11.1508 40.9554 10.8615 47.9858C8.26859 46.9715 5.96642 47.3684 4.15645 49.0154C1.5793 51.3604 0 56.2398 0 63.1884C0 77.1412 6.36864 94.4033 14.4004 102.512L41.4026 127.091C45.7142 131.015 49.6345 131.342 52.5382 128.7C55.6557 125.863 57.6014 119.604 57.6014 110.703C57.6014 94.1334 50.4915 74.1664 41.5251 65.0308ZM144.396 10.9153C152.905 15.8278 160.236 25.747 163.76 36.0285C163.76 36.0285 163.76 36.0286 163.76 36.0287L163.76 36.0286C175.715 43.7547 185.195 60.6407 185.195 74.6537L198.999 66.6837C198.999 52.6706 189.519 35.7845 177.564 28.0585C174.04 17.777 166.709 7.85779 158.201 2.94531L144.396 10.9153Z" fill="#D4E4FE"/>
</svg>
