<svg width="123" height="84" viewBox="0 0 123 84" fill="none" xmlns="http://www.w3.org/2000/svg">
<path d="M64.8212 0.798474C62.9772 -0.266158 59.9875 -0.266158 58.1435 0.798474V18.5332C59.9874 17.4686 62.9771 17.4686 64.8211 18.5332L109.562 44.3642L64.8212 70.1952C62.9772 71.2598 59.9874 71.2598 58.1435 70.1952V83.2016C59.9875 84.2662 62.9772 84.2662 64.8212 83.2016L121.582 50.4309L121.582 33.5691L64.8212 0.798474Z" fill="url(#paint0_linear_147_2673)"/>
<path d="M58.1435 0.798474L1.383 33.5691C0.460885 34.1015 -0.000114221 34.7993 2.12278e-08 35.4971V48.503C0.000114252 49.2005 0.461077 49.8987 1.38289 50.4309L58.1435 83.2016V70.1952L13.4028 44.3642L58.1435 18.5332V0.798474Z" fill="url(#paint1_linear_147_2673)"/>
<path d="M121.582 33.5691C122.503 34.1014 122.965 34.799 122.965 35.4966V48.503C122.965 49.2007 122.504 49.8985 121.582 50.4309L121.582 33.5691Z" fill="url(#paint2_linear_147_2673)"/>
<defs>
<linearGradient id="paint0_linear_147_2673" x1="1.12837" y1="47.834" x2="122.958" y2="44.3642" gradientUnits="userSpaceOnUse">
<stop stop-color="#66A3FF"/>
<stop offset="0.45844" stop-color="#0066FF"/>
<stop offset="0.504978" stop-color="#66A3FF"/>
<stop offset="1" stop-color="#BECDFF"/>
</linearGradient>
<linearGradient id="paint1_linear_147_2673" x1="1.12837" y1="47.834" x2="122.958" y2="44.3642" gradientUnits="userSpaceOnUse">
<stop stop-color="#66A3FF"/>
<stop offset="0.45844" stop-color="#0066FF"/>
<stop offset="0.504978" stop-color="#66A3FF"/>
<stop offset="1" stop-color="#BECDFF"/>
</linearGradient>
<linearGradient id="paint2_linear_147_2673" x1="1.12837" y1="47.834" x2="122.958" y2="44.3642" gradientUnits="userSpaceOnUse">
<stop stop-color="#66A3FF"/>
<stop offset="0.45844" stop-color="#0066FF"/>
<stop offset="0.504978" stop-color="#66A3FF"/>
<stop offset="1" stop-color="#BECDFF"/>
</linearGradient>
</defs>
</svg>
