<svg width="52" height="56" viewBox="0 0 52 56" fill="none" xmlns="http://www.w3.org/2000/svg">
<path fill-rule="evenodd" clip-rule="evenodd" d="M9.30066 5.74893L9.33253 5.73066L9.30085 5.74895C7.75981 6.63833 6.59784 8.18497 5.96618 10.3001L0 13.7447C1.47526 12.8933 3.35168 12.6881 5.46509 13.2125L5.46513 13.2124L5.46513 13.2125L13.9038 8.34039C13.9828 7.12339 14.1946 6.02558 14.5233 5.05639C15.8128 5.31439 17.19 5.84645 18.6208 6.67253L27.0595 1.80045C23.4185 -0.301684 20.1248 -0.499853 17.7394 0.876849L9.30066 5.74893ZM30.3583 54.1082C33.8725 56.1372 37.0678 56.3059 39.4345 54.9399L47.8732 50.0678L47.8399 50.0869L47.8731 50.0677C50.4141 48.6012 52 45.3656 52 40.7639L52.0001 40.7639C52.0001 32.1977 46.205 21.8751 38.8968 17.1522C36.7427 10.8671 32.2611 4.80346 27.0597 1.80045L18.621 6.67253C23.8224 9.67556 28.304 15.7392 30.4581 22.0244L30.4582 22.0243C37.7664 26.7473 43.5614 37.0698 43.5614 45.636L43.5613 45.636C43.5613 47.6138 43.2683 49.3393 42.7325 50.7804C41.4893 50.5357 40.1674 50.0274 38.797 49.2362L30.3583 54.1082Z" fill="#D4E4FE"/>
</svg>
