<svg width="48" height="48" viewBox="0 0 48 48" fill="none" xmlns="http://www.w3.org/2000/svg">
<g clip-path="url(#clip0_147_2975)">
<g filter="url(#filter0_d_147_2975)">
<path d="M40 42V38C40 35.8783 39.1571 33.8434 37.6569 32.3431C36.1566 30.8429 34.1217 30 32 30H16C13.8783 30 11.8434 30.8429 10.3431 32.3431C8.84285 33.8434 8 35.8783 8 38V42M32 14C32 18.4183 28.4183 22 24 22C19.5817 22 16 18.4183 16 14C16 9.58172 19.5817 6 24 6C28.4183 6 32 9.58172 32 14Z" stroke="#0066FF" stroke-width="4" stroke-linecap="round" stroke-linejoin="round" shape-rendering="crispEdges"/>
</g>
</g>
<defs>
<filter id="filter0_d_147_2975" x="2" y="4" width="44" height="48" filterUnits="userSpaceOnUse" color-interpolation-filters="sRGB">
<feFlood flood-opacity="0" result="BackgroundImageFix"/>
<feColorMatrix in="SourceAlpha" type="matrix" values="0 0 0 0 0 0 0 0 0 0 0 0 0 0 0 0 0 0 127 0" result="hardAlpha"/>
<feOffset dy="4"/>
<feGaussianBlur stdDeviation="2"/>
<feComposite in2="hardAlpha" operator="out"/>
<feColorMatrix type="matrix" values="0 0 0 0 0 0 0 0 0 0 0 0 0 0 0 0 0 0 0.25 0"/>
<feBlend mode="normal" in2="BackgroundImageFix" result="effect1_dropShadow_147_2975"/>
<feBlend mode="normal" in="SourceGraphic" in2="effect1_dropShadow_147_2975" result="shape"/>
</filter>
<clipPath id="clip0_147_2975">
<rect width="48" height="48" fill="white"/>
</clipPath>
</defs>
</svg>
